<svg width="3015" height="1372" viewBox="0 0 3015 1372" fill="none" xmlns="http://www.w3.org/2000/svg">
<g clip-path="url(#clip0_2540_61)">
<path d="M2.29866 171.238C-2.11572 183.828 -7.16072 181.306 60.2348 202.094C181.742 239.866 285.022 304.712 336.652 375.232C349.875 393.539 359.945 408.611 358.683 409.811C357.422 410.442 344.199 414.855 329.715 418.639C295.133 428.707 275.563 455.78 275.563 492.922C275.563 528.192 292.569 554.635 310.837 548.96C318.384 547.068 336.652 543.305 351.136 541.414C374.429 538.261 378.843 535.108 384.498 517.493C388.282 506.143 398.352 490.42 406.55 482.915C425.428 465.279 426.059 457.103 409.703 441.99C402.766 435.704 388.913 416.178 378.843 398.542C324.691 304.081 218.908 229.167 70.9351 180.676C1.66804 158.647 7.34367 159.217 2.29866 171.238Z" fill="#08415C"/>
<path d="M444.326 369.557C437.39 372.08 424.797 381.538 416.62 390.976L401.505 407.37L417.881 419.961C426.689 426.877 435.518 438.267 438.02 444.512C441.173 453.95 446.157 455.842 468.88 453.319C487.189 450.797 503.463 453.319 517.377 460.255C544.453 473.477 546.325 473.477 551.37 452.119C563.331 397.2 497.848 346.898 444.326 369.557Z" fill="#08415C"/>
<path d="M573.401 448.906C573.027 458.645 570.898 468.237 567.115 477.22C557.046 495.526 574.662 543.346 590.408 540.824C596.714 539.563 614.961 537.041 631.968 535.149C660.305 531.997 661.567 530.756 661.567 511.859C661.567 484.156 640.146 452.038 614.331 441.339C582.86 428.118 573.401 430.009 573.401 448.906Z" fill="#08415C"/>
<path d="M455.657 477.219C423.536 486.678 403.396 515.643 403.396 553.415C403.396 579.857 406.55 587.404 422.295 603.778L441.173 622.674L460.702 606.402C480.841 589.397 492.803 585.003 529.338 582.481C550.739 580.59 551.37 579.329 553.262 553.516C557.045 499.899 509.179 462.127 455.657 477.219Z" fill="#08415C"/>
<path d="M233.392 512.49C218.278 523.189 201.902 556.568 201.902 577.966C201.902 599.995 221.411 634.004 240.309 643.442C257.946 652.9 257.946 652.9 262.34 629.59C264.863 616.369 270.477 598.123 274.932 589.296C281.869 574.813 281.239 569.159 264.863 538.302C247.856 503.683 247.226 502.971 233.392 512.49Z" fill="#08415C"/>
<path d="M330.346 567.267C285.592 586.773 269.907 639.658 296.353 682.475C311.468 707.657 315.862 708.287 329.715 684.997C342.307 663.599 386.39 640.248 412.836 640.248H431.144L411.615 621.942C400.284 611.873 387.061 593.608 382.037 581.017C371.906 556.568 361.836 553.415 330.346 567.267Z" fill="#08415C"/>
<path d="M582.229 574.162L565.854 590.536L582.229 603.127C605.522 621.433 617.483 647.876 617.483 681.193C617.483 708.897 617.483 709.528 638.904 709.528C673.487 709.528 711.935 669.233 711.935 633.983C711.935 611.324 692.426 577.315 673.528 567.877C664.089 562.832 642.668 558.418 626.923 558.418C604.261 558.439 594.822 562.222 582.229 574.162Z" fill="#08415C"/>
<path d="M478.319 616.999C448.11 637.156 435.599 674.298 448.11 707.046C468.88 761.192 537.516 776.916 574.662 735.36C609.245 696.327 602.369 641.55 559.547 615.107C532.471 598.754 504.764 599.364 478.319 616.999Z" fill="#08415C"/>
<path d="M358.683 690.103C329.715 718.437 326.582 744.249 346.722 777.567C371.275 817.841 429.212 826.038 465.055 793.839L482.062 779.357L461.292 762.352C435.518 741.666 422.336 716.545 422.336 687.519C422.336 666.732 421.074 665.491 402.807 665.491C388.282 665.491 376.32 671.796 358.683 690.103Z" fill="#08415C"/>
<path d="M237.217 687.519C220.841 705.154 213.294 731.597 218.908 754.256C229.08 793.839 269.907 824.146 295.092 810.925C303.353 806.865 312.346 804.506 321.537 803.989C334.129 803.989 334.13 803.358 324.69 785.113C319.645 775.044 315.231 758.67 315.231 747.971C315.302 742.161 314.034 736.412 311.526 731.171C309.018 725.929 305.337 721.335 300.767 717.745C290.742 709.45 282.031 699.684 274.932 688.78C261.079 667.992 255.525 667.362 237.217 687.519Z" fill="#08415C"/>
<path d="M670.375 721.508L638.274 737.882L650.236 754.256C657.153 763.694 664.72 783.852 665.981 800.226C669.114 828.56 670.375 829.191 690.535 829.191C699.367 829.049 708.2 829.463 716.981 830.431C726.42 832.323 749.712 788.876 749.712 769.41C749.712 746.751 725.789 707.087 711.936 705.826C706.911 705.155 688.012 712.701 670.375 721.508Z" fill="#08415C"/>
<path d="M591.669 751.124C579.077 766.237 549.478 779.458 524.294 781.35C505.395 781.981 501.001 785.133 497.217 799.657C491.542 819.794 499.74 851.281 513.593 867.024C523.663 877.723 525.555 877.723 552.631 865.763C574.032 856.325 589.146 853.803 608.675 856.935C631.337 860.088 637.013 858.196 642.668 848.128C657.152 820.424 643.299 770.061 615.592 751.795C601.739 742.296 598.606 742.296 591.669 751.124Z" fill="#08415C"/>
<path d="M298.245 835.476C224.563 880.225 261.079 982.802 348.614 975.255C364.359 973.364 363.728 929.286 346.722 914.234C330.346 899.751 319.015 863.871 324.06 841.212C328.454 819.732 325.321 819.102 298.245 835.476Z" fill="#08415C"/>
<path d="M346.721 851.85C346.721 876.401 349.875 883.947 368.142 902.213C392.696 926.764 400.243 927.395 445.587 911.651C491.541 895.928 499.74 888.361 489.039 871.357C483.175 861.614 478.923 850.988 476.447 839.89C473.294 826.038 469.51 822.885 461.333 826.038C431.103 838.629 406.549 840.52 381.996 831.693C346.091 819.732 346.721 819.732 346.721 851.85Z" fill="#08415C"/>
<path d="M665.351 858.135C652.128 870.726 652.758 875.14 667.853 888.991C674.79 895.297 681.706 905.365 683.598 911.651C685.036 915.159 687.476 918.166 690.612 920.296C693.749 922.427 697.444 923.587 701.235 923.631C714.354 925.379 727.246 928.544 739.683 933.069L763.606 941.205L760.473 916.024C756.69 887.059 742.165 868.814 713.868 856.833C687.382 845.544 677.312 845.544 665.351 858.135Z" fill="#08415C"/>
<path d="M569.007 880.184C558.307 883.337 543.192 893.406 536.255 902.213L523.032 919.218L543.823 942.508C561.439 962.665 567.115 965.797 592.299 965.167C608.045 965.167 630.706 970.211 642.037 975.886C653.999 981.541 664.089 986.585 664.72 986.585C665.981 986.585 668.483 976.517 670.375 964.557C680.465 911.021 625.051 864.441 569.007 880.184Z" fill="#08415C"/>
<path d="M422.926 945.66C386.309 977.147 383.868 1024.99 417.25 1060.24C438.651 1082.92 497.848 1077.24 497.848 1052.1C497.848 1037.62 521.771 994.172 533.102 987.887C548.217 979.751 538.778 957.031 514.794 941.918C485.887 924.242 446.849 926.052 422.926 945.66Z" fill="#08415C"/>
<path d="M693.057 962.035C692.527 970.543 690.387 978.874 686.751 986.585C682.337 995.393 683.598 1008.61 691.165 1033.8C701.337 1066.54 703.127 1069.07 718.242 1065.28C744.687 1059 763.565 1035.06 766.718 1004.26C769.872 979.059 767.98 974.666 752.865 962.706C729.512 943.769 693.057 943.769 693.057 962.035Z" fill="#08415C"/>
<path d="M563.962 989.107C487.778 1023.1 514.854 1143.98 598.545 1143.98C650.805 1143.98 690.473 1088.57 674.728 1036.95C661.566 993.501 606.783 969.581 563.962 989.107Z" fill="#08415C"/>
</g>
<path d="M1190.65 430.55H998.6C991.7 397.583 988.25 367.3 988.25 339.7C988.25 314.4 991.7 284.883 998.6 251.15H1586.25C1589.32 268.017 1591.62 283.733 1593.15 298.3C1594.68 312.867 1595.45 326.667 1595.45 339.7C1595.45 365 1592.38 395.283 1586.25 430.55H1394.2V1074.55C1353.57 1081.45 1319.83 1084.9 1293 1084.9C1264.63 1084.9 1230.52 1081.45 1190.65 1074.55V430.55ZM1992.91 1090.65C1930.81 1090.65 1879.06 1082.22 1837.66 1065.35C1797.03 1048.48 1764.83 1024.33 1741.06 992.9C1717.29 960.7 1700.43 921.983 1690.46 876.75C1681.26 831.517 1676.66 780.533 1676.66 723.8V253.45C1698.89 250.383 1718.06 248.467 1734.16 247.7C1750.26 246.167 1765.59 245.4 1780.16 245.4C1793.19 245.4 1807.38 246.167 1822.71 247.7C1838.81 248.467 1857.98 250.383 1880.21 253.45V699.65C1880.21 737.983 1881.74 770.567 1884.81 797.4C1887.88 824.233 1893.24 846.083 1900.91 862.95C1909.34 879.817 1920.84 892.083 1935.41 899.75C1949.98 906.65 1969.14 910.1 1992.91 910.1C2016.68 910.1 2035.84 906.65 2050.41 899.75C2065.74 892.083 2077.24 879.817 2084.91 862.95C2093.34 846.083 2098.71 824.233 2101.01 797.4C2104.08 770.567 2105.61 737.983 2105.61 699.65V253.45C2128.61 250.383 2147.78 248.467 2163.11 247.7C2179.21 246.167 2193.78 245.4 2206.81 245.4C2220.61 245.4 2235.56 246.167 2251.66 247.7C2267.76 248.467 2286.93 250.383 2309.16 253.45V723.8C2309.16 780.533 2304.18 831.517 2294.21 876.75C2285.01 921.983 2268.53 960.7 2244.76 992.9C2220.99 1024.33 2188.41 1048.48 2147.01 1065.35C2106.38 1082.22 2055.01 1090.65 1992.91 1090.65ZM2593.34 430.55H2401.29C2394.39 397.583 2390.94 367.3 2390.94 339.7C2390.94 314.4 2394.39 284.883 2401.29 251.15H2988.94C2992 268.017 2994.3 283.733 2995.84 298.3C2997.37 312.867 2998.14 326.667 2998.14 339.7C2998.14 365 2995.07 395.283 2988.94 430.55H2796.89V1074.55C2756.25 1081.45 2722.52 1084.9 2695.69 1084.9C2667.32 1084.9 2633.2 1081.45 2593.34 1074.55V430.55Z" fill="#08415C"/>
<defs>
<clipPath id="clip0_2540_61">
<rect width="768" height="981" fill="white" transform="translate(0 163)"/>
</clipPath>
</defs>
</svg>
