<?xml version="1.0" standalone="no"?>
<!DOCTYPE svg PUBLIC "-//W3C//DTD SVG 20010904//EN"
 "http://www.w3.org/TR/2001/REC-SVG-20010904/DTD/svg10.dtd">
<svg version="1.0" xmlns="http://www.w3.org/2000/svg"
 width="1024.000000pt" height="1024.000000pt" viewBox="0 0 1024.000000 1024.000000"
 preserveAspectRatio="xMidYMid meet">

<g transform="translate(0.000000,1024.000000) scale(0.100000,-0.100000)"
fill="#000000" stroke="none">
<path d="M1600 7953 c0 -3 32 -67 71 -142 40 -75 96 -183 127 -241 30 -58 72
-136 92 -175 117 -217 546 -1040 935 -1795 92 -179 184 -356 205 -395 21 -38
87 -164 148 -280 274 -524 423 -807 455 -866 19 -35 103 -192 187 -349 355
-665 401 -743 510 -869 221 -257 568 -397 897 -361 397 43 684 257 914 683 85
156 508 949 626 1172 119 224 385 732 563 1075 78 151 164 316 190 365 26 50
114 218 195 375 81 157 214 411 295 565 184 348 436 830 543 1035 44 85 86
164 94 175 7 11 13 23 13 27 0 5 -186 8 -412 8 -471 0 -409 12 -549 -107 -122
-104 -277 -279 -396 -448 -192 -274 -329 -544 -613 -1215 -145 -340 -202 -474
-220 -515 -10 -22 -39 -89 -65 -150 -87 -201 -199 -442 -287 -620 -354 -708
-708 -1070 -1069 -1092 -115 -7 -175 5 -278 56 l-74 36 94 6 c578 39 927 439
1469 1684 113 260 211 487 275 640 300 714 443 997 649 1284 131 181 296 360
378 409 16 9 28 20 28 24 0 4 -54 8 -121 8 l-121 0 -70 -67 c-140 -135 -297
-350 -440 -603 -142 -250 -187 -350 -596 -1315 -173 -408 -249 -575 -388 -855
-258 -519 -504 -825 -771 -960 -118 -59 -187 -75 -333 -74 -109 0 -134 3 -198
26 -120 43 -208 101 -312 207 -107 109 -163 187 -249 352 -50 95 -217 473
-293 664 -118 297 -527 1232 -647 1480 -201 415 -401 739 -634 1025 l-93 115
-134 3 -135 2 97 -90 c247 -230 544 -687 785 -1205 103 -219 467 -1069 613
-1426 l19 -47 -37 -6 c-20 -3 -58 -6 -83 -6 l-47 0 -75 173 c-92 210 -164 372
-182 412 -7 17 -25 57 -40 90 -15 33 -61 131 -101 218 -41 87 -74 160 -74 163
0 6 -254 515 -290 579 -15 28 -55 102 -90 165 -258 473 -535 873 -659 952 -43
27 -50 28 -168 28 -68 0 -123 -3 -123 -7z m5743 -828 c-3 -9 -8 -14 -10 -11
-3 3 -2 9 2 15 9 16 15 13 8 -4z m-39 -73 c3 -5 -1 -9 -9 -9 -8 0 -12 4 -9 9
3 4 7 8 9 8 2 0 6 -4 9 -8z m110 -88 c-46 -78 -193 -371 -246 -489 -15 -33
-38 -85 -51 -115 -14 -30 -37 -84 -52 -120 -14 -36 -35 -84 -46 -107 -10 -24
-19 -45 -19 -48 0 -3 -15 -40 -34 -83 -19 -42 -69 -159 -112 -259 -44 -105
-81 -180 -87 -176 -6 3 -7 1 -4 -4 9 -14 -13 -74 -24 -67 -5 3 -6 -1 -3 -9 6
-17 -51 -139 -61 -129 -5 4 -5 1 0 -6 4 -8 -7 -45 -28 -90 -19 -43 -53 -117
-76 -167 -23 -49 -45 -89 -51 -88 -5 2 -7 -3 -4 -11 7 -19 -126 -297 -139
-289 -6 3 -7 1 -3 -5 10 -16 -93 -214 -106 -205 -6 3 -8 1 -4 -5 8 -14 -63
-144 -75 -136 -5 3 -6 -1 -4 -9 7 -18 -153 -258 -244 -367 -231 -274 -472
-439 -746 -507 -90 -22 -114 -24 -240 -20 -165 5 -267 31 -404 102 -263 136
-468 367 -623 700 -40 86 -188 476 -188 494 0 3 29 -48 64 -114 108 -206 206
-355 330 -505 203 -243 390 -385 606 -461 93 -33 98 -33 260 -33 153 0 171 2
243 27 140 49 306 147 381 226 33 35 49 40 39 14 -3 -10 -3 -15 1 -12 4 4 9
17 11 29 6 31 56 82 73 75 7 -2 10 0 7 5 -3 5 24 44 60 87 247 290 508 793
925 1784 48 114 116 273 250 584 57 133 225 478 264 540 l24 39 0 -37 c0 -20
-4 -35 -8 -32 -5 3 -11 2 -13 -2 -3 -5 11 -8 31 -9 21 0 31 1 25 3 -24 8 -13
23 17 23 20 0 30 -5 30 -15 0 -8 5 -15 11 -15 6 0 8 -9 4 -22 -6 -21 -5 -22 6
-4 9 15 9 24 0 37 -15 26 -14 37 2 15 13 -17 16 -15 42 27 48 75 39 46 -11
-39z m9 61 c-3 -9 -8 -14 -10 -11 -3 3 -2 9 2 15 9 16 15 13 8 -4z m-1437
-3289 c-25 -31 -33 -47 -25 -52 7 -4 9 -3 6 3 -13 20 21 22 56 3 19 -10 38
-16 43 -12 31 28 -76 -106 -138 -173 -184 -197 -453 -345 -708 -391 -100 -18
-302 -18 -387 1 -217 46 -361 136 -460 287 -23 36 -43 69 -43 73 0 3 21 -8 46
-25 73 -51 242 -127 331 -149 389 -99 767 4 1123 305 47 40 107 95 135 123 27
28 51 51 53 51 3 0 -12 -20 -32 -44z"/>
<path d="M7238 6922 c3 -9 1 -13 -4 -9 -5 3 -10 -3 -10 -14 0 -19 1 -18 18 3
21 28 22 35 4 35 -8 0 -12 -6 -8 -15z"/>
<path d="M7256 6893 c-6 -14 -5 -15 5 -6 7 7 10 15 7 18 -3 3 -9 -2 -12 -12z"/>
<path d="M7310 6841 c0 -6 4 -13 10 -16 6 -3 7 1 4 9 -7 18 -14 21 -14 7z"/>
<path d="M6491 5044 c0 -11 3 -14 6 -6 3 7 2 16 -1 19 -3 4 -6 -2 -5 -13z"/>
<path d="M6036 4333 c-6 -14 -5 -15 5 -6 7 7 10 15 7 18 -3 3 -9 -2 -12 -12z"/>
<path d="M5895 4161 c-3 -5 -2 -12 3 -15 5 -3 9 1 9 9 0 17 -3 19 -12 6z"/>
<path d="M5900 4118 c14 -16 13 -31 -2 -22 -7 5 -8 3 -3 -5 5 -9 10 -10 18 -2
8 8 6 15 -6 26 -9 8 -12 10 -7 3z"/>
<path d="M5729 3962 c-15 -17 -15 -20 2 -30 12 -8 20 -8 24 -2 4 6 3 10 -2 9
-19 -3 -23 2 -13 21 13 25 9 26 -11 2z"/>
<path d="M5635 3850 c-3 -6 1 -7 9 -4 18 7 21 14 7 14 -6 0 -13 -4 -16 -10z"/>
<path d="M5555 3789 c-4 -6 -14 -8 -24 -4 -13 5 -14 4 -3 -6 10 -11 15 -10 29
4 10 9 14 17 11 17 -4 0 -10 -5 -13 -11z"/>
<path d="M5265 3640 c3 -5 8 -10 11 -10 2 0 4 5 4 10 0 6 -5 10 -11 10 -5 0
-7 -4 -4 -10z"/>
<path d="M6011 3664 c0 -11 3 -14 6 -6 3 7 2 16 -1 19 -3 4 -6 -2 -5 -13z"/>
<path d="M2582 7888 c183 -207 375 -505 557 -863 144 -283 232 -480 686 -1540
324 -759 378 -867 502 -1008 224 -256 506 -287 772 -86 196 147 397 416 588
786 140 269 264 547 513 1143 258 618 339 796 470 1036 130 237 275 441 389
547 28 26 51 50 51 52 0 3 -128 5 -284 5 l-284 0 -141 -272 c-78 -150 -393
-776 -699 -1390 -306 -615 -559 -1118 -562 -1118 -9 0 -41 62 -552 1080 -572
1138 -855 1690 -872 1696 -7 3 -89 3 -184 2 l-173 -3 44 -60 c108 -150 200
-311 346 -603 158 -316 224 -464 584 -1307 356 -835 435 -1007 554 -1202 37
-62 97 -147 132 -189 l64 -77 -39 6 c-21 4 -71 23 -111 43 -116 59 -226 188
-321 379 -54 108 -238 524 -322 725 -29 69 -60 143 -70 165 -10 22 -73 168
-140 325 -404 943 -573 1286 -814 1647 l-101 153 -113 0 -112 0 68 -87 c279
-354 519 -831 1037 -2058 146 -347 337 -787 393 -905 66 -140 178 -306 276
-407 73 -75 79 -83 55 -83 -14 0 -50 7 -80 16 -171 50 -285 172 -419 449 -43
88 -207 462 -365 830 -575 1341 -732 1655 -1048 2095 l-104 145 -118 3 -117 3
64 -73z"/>
</g>
</svg>
